<?xml version="1.0" encoding="UTF-8"?> <!-- Generator: Adobe Illustrator 19.0.0, SVG Export Plug-In . SVG Version: 6.00 Build 0) --> <svg xmlns="http://www.w3.org/2000/svg" xmlns:xlink="http://www.w3.org/1999/xlink" id="Capa_1" x="0px" y="0px" viewBox="0 0 512.001 512.001" style="enable-background:new 0 0 512.001 512.001;" xml:space="preserve"> <g> <g> <polygon points="360.557,338.858 360.298,265.251 330.356,265.357 330.66,351.448 406.596,426.139 427.592,404.793 "></polygon> </g> </g> <g> <g> <path d="M511.003,326.87V45.092H449.15V0.176h-29.942v44.916h-29.945V0.176h-29.942v44.916h-29.946V0.176h-29.942v44.916h-29.946 V0.176h-29.942v44.916h-29.946V0.176H179.66v44.916h-29.945V0.176h-29.942v44.916H89.829V0.176H59.887v44.916H0v423.652h233.496 c30.7,27.844,70.095,43.081,111.832,43.081c44.519,0,86.375-17.337,117.855-48.818c31.481-31.48,48.818-73.335,48.818-117.855 C512,339.001,511.657,332.901,511.003,326.87z M29.942,438.806v-0.002V75.034h29.946v34.935H89.83V75.034h29.946v34.935h29.942 V75.034h29.945v34.935h29.942V75.034h29.946v34.935h29.942V75.034h29.946v34.935h29.942V75.034h29.946v34.935h29.942V75.034 h29.945v34.935h29.942V75.034h31.912v173.343c-5.323-7.432-11.286-14.485-17.879-21.077 c-31.481-31.481-73.336-48.818-117.855-48.818c-34.927,0-68.211,10.675-96.134,30.474H90.06v29.942h126.848 c-7.738,9.318-14.369,19.353-19.836,29.946H90.06v29.942h95.108c-2.789,9.685-4.713,19.66-5.709,29.835h-89.4v29.942h89.132 c2.293,28.991,12.006,56.477,28.217,80.243H29.942z M442.012,441.837c-22.263,22.263-50.853,35.893-81.713,39.233v-27.268h-29.942 v27.268c-30.86-3.339-59.45-16.97-81.713-39.233c-22.639-22.638-36.359-51.818-39.401-83.276h24.308v-29.942h-23.966 c3.625-30.262,17.174-58.261,39.061-80.148c22.263-22.263,50.852-35.893,81.712-39.233v24.14H360.3v-24.14 c30.86,3.339,59.45,16.97,81.713,39.233c21.886,21.885,35.435,49.886,39.06,80.148h-23.48v29.942h23.821 C478.371,390.019,464.649,419.198,442.012,441.837z"></path> </g> </g> <g> </g> <g> </g> <g> </g> <g> </g> <g> </g> <g> </g> <g> </g> <g> </g> <g> </g> <g> </g> <g> </g> <g> </g> <g> </g> <g> </g> <g> </g> </svg> 