<?xml version="1.0" encoding="iso-8859-1"?>
<!-- Generator: Adobe Illustrator 21.0.2, SVG Export Plug-In . SVG Version: 6.00 Build 0)  -->
<svg version="1.1" id="Layer_1" xmlns="http://www.w3.org/2000/svg" xmlns:xlink="http://www.w3.org/1999/xlink" x="0px" y="0px"
	 viewBox="0 0 100.75 100.75" style="enable-background:new 0 0 100.75 100.75;" xml:space="preserve">
<path d="M90.298,49.014c2.29-1.474,3.795-3.915,3.795-6.676c0-4.478-3.971-8.12-8.852-8.12H61.655
	c1.115-2.09,2.244-5.515,1.986-10.615C63.134,13.148,56.79,7.724,53.121,6.167c-2.164-0.918-4.519-0.7-6.298,0.583
	c-1.786,1.288-3.802,4.246-3.263,11.026c0.558,7.046-8.411,14.689-12.781,17.973v-2.682c0-0.829-0.671-1.5-1.5-1.5H9.416
	c-0.829,0-1.5,0.671-1.5,1.5v54.182c0,0.828,0.671,1.5,1.5,1.5h19.863c0.829,0,1.5-0.672,1.5-1.5v-2.737
	c5.654,2.033,21.553,7.511,29.41,7.768l15.777,0.11c4.875,0,8.841-3.805,8.841-8.481c0-2.153-0.844-4.115-2.223-5.614
	c4.208-0.655,7.434-4.148,7.434-8.359c0-2.243-0.921-4.28-2.411-5.798c3.735-0.996,6.487-4.278,6.487-8.172
	C94.093,53.09,92.589,50.548,90.298,49.014z M10.916,85.748V34.566h16.863v4.02c-0.002,0.04-0.001,0.08,0,0.12v43.634
	c-0.001,0.041-0.003,0.082,0,0.123v3.286H10.916z M85.241,61.454h-7.689c-0.003,0-0.006,0.001-0.01,0.001h-1.576
	c-0.828,0-1.5,0.672-1.5,1.5s0.672,1.5,1.5,1.5h5.195c3.229,0,5.856,2.459,5.856,5.48c0,3.021-2.627,5.479-5.856,5.479h-5.175
	c-0.007,0-0.013-0.001-0.02-0.001h-5.514c-0.828,0-1.5,0.672-1.5,1.5s0.672,1.5,1.5,1.5h5.504c0.003,0,0.006,0.001,0.01,0.001h0.02
	c3.211,0.011,5.82,2.47,5.82,5.494c0,3.022-2.62,5.481-5.83,5.481L60.248,89.28c-7.822-0.257-25.169-6.397-29.469-7.961V39.456
	c3.249-2.235,16.556-12.025,15.771-21.917c-0.334-4.205,0.386-7.172,2.027-8.355c1.365-0.983,2.926-0.442,3.373-0.254
	c3.024,1.284,8.26,5.85,8.695,14.823c0.395,7.798-2.763,10.715-2.884,10.823c-0.479,0.408-0.653,1.07-0.437,1.661
	c0.218,0.59,0.779,0.982,1.408,0.982h26.508c3.227,0,5.852,2.297,5.852,5.12c0,2.837-2.625,5.146-5.852,5.146h-6.413
	c-0.828,0-1.5,0.671-1.5,1.5s0.672,1.5,1.5,1.5h6.413c3.227,0,5.852,2.458,5.852,5.481C91.093,58.991,88.468,61.454,85.241,61.454z"
	/>
</svg>
