<svg version="1.1" xmlns="http://www.w3.org/2000/svg" xmlns:xlink="http://www.w3.org/1999/xlink" x="0px" y="0px"
  viewBox="0 0 100.75 100.75" style="enable-background:new 0 0 100.75 100.75;" xml:space="preserve">
<g>
	<path d="M18.22,70.702c0,5.032,4.094,9.127,9.127,9.127s9.127-4.095,9.127-9.127s-4.094-9.127-9.127-9.127
		S18.22,65.669,18.22,70.702z M33.474,70.702c0,3.378-2.749,6.127-6.127,6.127s-6.127-2.749-6.127-6.127s2.749-6.127,6.127-6.127
		S33.474,67.324,33.474,70.702z"/>
	<path d="M90.219,36.618c-0.618-0.551-1.565-0.498-2.118,0.12L66.314,61.141L55.098,49.925c-0.586-0.586-1.535-0.586-2.121,0
		s-0.586,1.535,0,2.121l12.339,12.338c0.282,0.282,0.663,0.439,1.061,0.439c0.014,0,0.028,0,0.042-0.001
		c0.412-0.012,0.802-0.192,1.077-0.5L90.34,38.735C90.891,38.118,90.837,37.169,90.219,36.618z"/>
	<path d="M66.894,68.574c-0.829,0-1.5,0.672-1.5,1.5v14.927H12.28v-70h53.114v31.427c0,0.828,0.671,1.5,1.5,1.5s1.5-0.672,1.5-1.5
		V13.501c0-0.828-0.671-1.5-1.5-1.5H10.78c-0.829,0-1.5,0.672-1.5,1.5v73c0,0.828,0.671,1.5,1.5,1.5h56.114
		c0.829,0,1.5-0.672,1.5-1.5V70.074C68.394,69.246,67.723,68.574,66.894,68.574z"/>
	<path d="M49.36,32.226c0.829,0,1.5-0.672,1.5-1.5s-0.671-1.5-1.5-1.5H19.224c-0.829,0-1.5,0.672-1.5,1.5s0.671,1.5,1.5,1.5H49.36z"
		/>
	<path d="M51.229,44.07c0-0.828-0.671-1.5-1.5-1.5H19.601c-0.829,0-1.5,0.672-1.5,1.5s0.671,1.5,1.5,1.5h30.128
		C50.558,45.57,51.229,44.898,51.229,44.07z"/>
</g>
</svg>
