<?xml version="1.0" encoding="UTF-8"?> <!-- Generator: Adobe Illustrator 19.0.0, SVG Export Plug-In . SVG Version: 6.00 Build 0) --> <svg xmlns="http://www.w3.org/2000/svg" xmlns:xlink="http://www.w3.org/1999/xlink" id="Capa_1" x="0px" y="0px" viewBox="0 0 512 512" style="enable-background:new 0 0 512 512;" xml:space="preserve"> <g> <g> <path d="M434.068,315.332l-44.087,47.328C384.283,344.34,367.171,331,347,331h-70.295c-9.701,0-19.056-3.53-26.34-9.939 c-39.172-34.472-98.053-34.775-137.595-0.954C104.616,308.562,91.179,301,76,301H15c-8.284,0-15,6.716-15,15v181 c0,8.284,6.716,15,15,15h61c13.471,0,25.57-5.958,33.824-15.368C141.531,505.544,171.192,512,212.063,512H347 c32.873,0,64.275-15.701,84.045-42.059l71.965-96.952c0.002-0.002,0.004-0.004,0.005-0.006c0.007-0.009,0.013-0.019,0.02-0.028 l0.024-0.032c0.003-0.005,0.006-0.01,0.009-0.014C508.91,365.087,512,355.785,512,346 C512,305.143,461.738,285.629,434.068,315.332z M91,467c0,8.271-6.729,15-15,15H30V331h46c8.271,0,15,6.729,15,15V467z M479.015,354.982c-0.007,0.01-0.013,0.021-0.021,0.03c-0.008,0.01-0.017,0.02-0.024,0.03L407,452c-14.089,18.785-36.519,30-60,30 H212.063c-35.174,0-62.814-5.392-91.304-13.4c0.06-1.72,0.041,7.513,0.041-115.819l10.653-9.198 c28.246-24.857,70.847-24.857,99.095,0C243.312,354.814,259.703,361,276.705,361H347c8.271,0,15,6.729,15,15s-6.729,15-15,15 H239.394c-8.284,0-15,6.716-15,15s6.716,15,15,15h117.66c12.444,0,24.445-5.222,32.928-14.328l66.038-70.892 c2.872-3.083,6.771-4.78,10.98-4.78C479.357,331,486.375,345.171,479.015,354.982z"></path> </g> </g> <g> <g> <path d="M347,150c-8.271,0-15-6.729-15-15c0-6.042,3.596-11.468,9.159-13.825c6.717-2.844,14.756-0.417,22.059,6.659 c5.951,5.764,15.445,5.614,21.211-0.335c5.764-5.95,5.614-15.446-0.336-21.21c-6.772-6.561-14.3-11.198-22.093-13.815V75 c0-8.284-6.716-15-15-15s-15,6.716-15,15v17.571c-18.373,6.537-30,23.651-30,42.429c0,24.813,20.187,45,45,45 c8.271,0,15,6.729,15,15c0,6.286-3.965,11.953-9.866,14.103c-7.7,2.806-16.674-0.999-24.606-10.444 c-5.327-6.343-14.789-7.167-21.134-1.839c-6.344,5.328-7.167,14.79-1.839,21.134c8.109,9.654,17.549,16.275,27.445,19.608V255 c0,8.284,6.716,15,15,15s15-6.716,15-15v-17.573c0.134-0.047,0.268-0.088,0.401-0.136C380.105,230.843,392,213.847,392,195 C392,170.187,371.813,150,347,150z"></path> </g> </g> <g> <g> <path d="M347,0c-90.981,0-165,74.019-165,165s74.019,165,165,165s165-74.019,165-165S437.981,0,347,0z M347,300 c-74.439,0-135-60.561-135-135S272.561,30,347,30s135,60.561,135,135S421.439,300,347,300z"></path> </g> </g> <g> </g> <g> </g> <g> </g> <g> </g> <g> </g> <g> </g> <g> </g> <g> </g> <g> </g> <g> </g> <g> </g> <g> </g> <g> </g> <g> </g> <g> </g> </svg> 