<?xml version="1.0" encoding="utf-8"?><svg viewBox="0 0 512.01 512.01" xmlns="http://www.w3.org/2000/svg" xmlns:xlink="http://www.w3.org/1999/xlink"><style>:root>svg{display:none}:root>svg:target{display:block}</style><svg viewBox="0 0 30 30" id="facebook-30" xmlns="http://www.w3.org/2000/svg"><path d="M12 27V15H8v-4h4V8.852C12 4.785 13.981 3 17.361 3c1.619 0 2.475.12 2.88.175V7h-2.305C16.501 7 16 7.757 16 9.291V11h4.205l-.571 4H16v12h-4z"/></svg><svg viewBox="0 0 30 30" id="instagram-30" xmlns="http://www.w3.org/2000/svg"><path d="M9.998 3C6.139 3 3 6.142 3 10.002v10C3 23.861 6.142 27 10.002 27h10C23.861 27 27 23.858 27 19.998v-10C27 6.139 23.858 3 19.998 3h-10zM22 7a1 1 0 110 2 1 1 0 010-2zm-7 2c3.309 0 6 2.691 6 6s-2.691 6-6 6-6-2.691-6-6 2.691-6 6-6zm0 2a4 4 0 00-4 4 4 4 0 004 4 4 4 0 004-4 4 4 0 00-4-4z"/></svg><svg viewBox="0 0 512.005 512.005" id="right-arrow" xmlns="http://www.w3.org/2000/svg"><path d="M388.418 240.923L153.751 6.256c-8.341-8.341-21.824-8.341-30.165 0s-8.341 21.824 0 30.165L343.17 256.005 123.586 475.589c-8.341 8.341-8.341 21.824 0 30.165a21.275 21.275 0 0015.083 6.251 21.277 21.277 0 0015.083-6.251l234.667-234.667c8.34-8.34 8.34-21.823-.001-30.164z"/></svg></svg>